<svg width="25" height="32" viewBox="0 0 25 32" fill="none" xmlns="http://www.w3.org/2000/svg">
<g clip-path="url(#clip0_14231_29028)">
<path fill-rule="evenodd" clip-rule="evenodd" d="M20.7223 29.3329C19.5339 28.9946 18.2901 28.8777 17.0135 29.0493C15.7714 29.2159 14.6414 29.6825 13.4215 29.8885C12.1128 30.1094 10.7858 30.0323 9.51354 29.6598C7.69784 29.1521 6.32019 28.2939 6.22803 28.2196C6.22803 28.2196 8.36051 31.1199 11.7975 31.4212C11.9832 31.4377 12.1686 31.4591 12.3549 31.4709C12.7333 31.4949 13.1143 31.4953 13.4905 31.4714C13.8478 31.4482 14.2028 31.406 14.5511 31.3457C14.9057 31.2842 15.254 31.2038 15.5932 31.1064C15.6962 31.0768 15.7985 31.0454 15.9003 31.013C16.7939 30.7241 17.6791 30.391 18.5937 30.1731C19.5501 29.9454 20.5292 29.8463 21.511 29.8994C21.7081 29.9099 22.21 29.9632 22.4949 30.0151C21.921 29.7362 21.3291 29.5057 20.7223 29.3329Z" fill="#333869"/>
<path fill-rule="evenodd" clip-rule="evenodd" d="M0 26.8718C1.6224 25.5662 3.72409 24.9998 5.73684 25.1732C6.03556 25.199 6.33296 25.2392 6.6286 25.2907C7.67262 25.4731 8.65836 25.8873 9.65526 26.2283C11.0176 26.6946 12.4137 27.166 13.8683 27.2101C15.039 27.2454 16.2156 26.9691 17.2136 26.3476C17.674 26.0612 18.1376 25.7646 18.5393 25.4008C18.5956 25.3495 18.7085 25.2745 18.7416 25.2002C17.7329 27.0398 16.1239 28.7553 13.9209 29.0389C13.0066 29.1574 12.0825 29.0028 11.1972 28.7767C9.56586 28.3612 8.05738 27.6303 6.44381 27.1708C5.61032 26.9324 4.75526 26.7621 3.8901 26.6858C1.84133 26.5056 0.159668 26.8046 0 26.8718Z" fill="#333869"/>
<path fill-rule="evenodd" clip-rule="evenodd" d="M12.4477 0.483643L0.00683594 7.90558C0.00683594 7.90558 0.319825 9.83835 1.06076 12.6297L12.4477 5.83659V0.483643Z" fill="#333869"/>
<path fill-rule="evenodd" clip-rule="evenodd" d="M12.4472 15.8953L3.95337 20.9622C4.19564 21.5047 4.45077 22.0455 4.71961 22.5816L12.4472 17.9714V15.8953Z" fill="#333869"/>
<path fill-rule="evenodd" clip-rule="evenodd" d="M12.4474 7.80542L1.53296 14.3166C1.69966 14.8805 1.8806 15.4663 2.07787 16.068L12.4474 9.88209V7.80542Z" fill="#333869"/>
<path fill-rule="evenodd" clip-rule="evenodd" d="M5.51416 24.0761C5.6154 24.2573 5.71868 24.4373 5.82353 24.6154C6.02533 24.6118 6.22654 24.6136 6.42724 24.625C6.72647 24.6416 7.02514 24.6724 7.32224 24.7158C8.37164 24.866 9.36935 25.2509 10.3766 25.5617C11.0579 25.7725 11.7481 25.9838 12.4478 26.1441V19.9402L5.51416 24.0761Z" fill="#333869"/>
<path fill-rule="evenodd" clip-rule="evenodd" d="M3.2872 19.3911L2.64114 17.7002L12.4475 11.8506V13.9267L3.2872 19.3911Z" fill="#333869"/>
<path fill-rule="evenodd" clip-rule="evenodd" d="M12.4478 5.83662L23.8364 12.6305C24.577 9.83874 24.8903 7.9056 24.8903 7.9056L12.4495 0.483667V0.482788L12.4484 0.483133L12.4478 5.83662Z" fill="#333869"/>
<path fill-rule="evenodd" clip-rule="evenodd" d="M12.4478 19.9402V26.1441C13.1608 26.3069 13.8834 26.4164 14.6183 26.4169C15.789 26.4169 16.9567 26.1052 17.9353 25.4538C18.3309 25.1906 18.7267 24.9169 19.0826 24.6001C19.1844 24.4273 19.2844 24.2525 19.3831 24.0771L12.4478 19.9402Z" fill="#333869"/>
<path fill-rule="evenodd" clip-rule="evenodd" d="M12.4478 11.8507V13.9269L21.6096 19.3922C21.8379 18.8242 22.0534 18.259 22.2559 17.701L12.4478 11.8507Z" fill="#333869"/>
<path fill-rule="evenodd" clip-rule="evenodd" d="M12.4478 7.80542V9.88209L22.8188 16.0686C23.0162 15.4673 23.1972 14.8814 23.3638 14.3174L12.4478 7.80542Z" fill="#333869"/>
<path fill-rule="evenodd" clip-rule="evenodd" d="M12.4478 15.8952V17.9714L20.1768 22.5824C20.445 22.0464 20.7005 21.5056 20.9429 20.963L12.4478 15.8952Z" fill="#333869"/>
</g>
<defs>
<clipPath id="clip0_14231_29028">
<rect width="25" height="31.0345" fill="white" transform="translate(0 0.482788)"/>
</clipPath>
</defs>
</svg>
