<?xml version="1.0" encoding="UTF-8"?>
<svg id="Layer_2" data-name="Layer 2" xmlns="http://www.w3.org/2000/svg" viewBox="0 0 25.5 31.72">
  <defs>
    <style>
      .cls-1 {
        fill: #f8b113;
        stroke-width: 0px;
      }
    </style>
  </defs>
  <g id="Layer_1-2" data-name="Layer 1">
    <g>
      <path class="cls-1" d="M11.04,27.45c-.05.29-.02.61-.16.82-.27.41-.62.76-.95,1.11-.05.05-.19.01-.28.01-3.01,0-6.01,0-9.02,0-.55,0-.63-.07-.63-.63,0-1,.03-2.01,0-3.01-.04-1.64.7-2.89,1.97-3.83.51-.38,1.12-.64,1.72-.97,1.32,3.53,3.77,5.66,7.35,6.49Z"/>
      <path class="cls-1" d="M14.48,27.45c3.56-.82,6.05-2.91,7.3-6.4,1.96.43,3.67,2.46,3.71,4.42.03,1.15,0,2.3.01,3.44,0,.34-.14.48-.48.48-3.09,0-6.19,0-9.28,0-.05,0-.12.02-.14,0-.32-.34-.69-.66-.94-1.04-.15-.23-.12-.57-.18-.89Z"/>
      <path class="cls-1" d="M7.95,7.6c3.21-1.16,6.37-1.16,9.56,0-.03.07-.03.11-.05.13-1.94,1.52-4.11,2.2-6.57,1.78-1.15-.2-2.08-.8-2.82-1.72-.04-.04-.06-.1-.12-.19Z"/>
      <path class="cls-1" d="M14.82,31.72c-1.02-.42-1.76-1.03-1.72-2.22h-.65c.02,1.2-.74,1.76-1.69,2.21-.3-1.03.08-2.1.91-2.63.08-.05.15-.21.14-.31-.04-.43.02-.81.41-1.05.36-.22.74-.23,1.1,0,.4.25.53.63.47,1.1-.01.09.05.25.12.29.76.41,1.15,1.36.92,2.62Z"/>
      <path class="cls-1" d="M11.82,26.81c-.07-.1-.16-.2-.23-.31-1.42-2.07-2.85-4.14-4.27-6.21-.08-.12-.17-.24-.23-.37-.1-.22-.04-.41.16-.53.19-.12.39-.14.56.05.07.08.13.17.19.26,1.49,2.17,2.98,4.34,4.47,6.51.08.12.15.24.23.37-.31.08-.59.15-.89.22Z"/>
      <path class="cls-1" d="M13.71,26.81c-.29-.08-.53-.14-.82-.22.1-.17.18-.33.29-.49,1.48-2.19,2.97-4.38,4.45-6.57.16-.24.36-.31.62-.17.24.14.29.41.1.69-.66.99-1.31,1.97-1.98,2.95-.78,1.14-1.57,2.26-2.35,3.4-.1.14-.2.27-.3.41Z"/>
      <path class="cls-1" d="M5.41,20.29c.05.16.1.3.15.43.74,1.93,1.97,3.41,3.87,4.29.14.07.28.18.38.31.25.29.47.6.74.95-.14-.03-.22-.03-.3-.06-2.55-.81-4.31-2.49-5.37-4.92-.31-.71-.28-.74.52-1Z"/>
      <path class="cls-1" d="M20.12,20.25c.91.4.82.24.5,1.02-1.01,2.48-2.81,4.14-5.36,4.97-.05.02-.11.02-.26.05.47-.54.74-1.09,1.39-1.4,1.84-.86,2.95-2.4,3.62-4.28.04-.11.07-.23.12-.36Z"/>
      <path class="cls-1" d="M21.32,3.64C17.43-.32,11.73-1.12,6.86,1.6c-1.04.58-1.96,1.32-2.77,2.2-.13.14-.25.27-.07.46.56.58,1.11,1.17,1.67,1.77.12-.07.22-.13.32-.19,1.14-.71,2.4-1.13,3.7-1.41.42-.09.68.04.74.32.06.27-.1.44-.54.53-1.07.24-2.09.6-3.05,1.12-.2.11-.39.23-.58.34.06.19.11.35.18.57,1.99-1.08,4.09-1.52,6.3-1.54,2.23-.01,4.32.49,6.29,1.51q.19-.57-.28-.83c-.99-.54-2.03-.95-3.14-1.17-.13-.03-.26-.06-.38-.13-.29-.15-.32-.55-.04-.71.13-.07.33-.09.48-.06,1.38.24,2.68.7,3.87,1.46.2.13.32.12.48-.06.42-.47.85-.92,1.28-1.38q.36-.38-.02-.77ZM14.54,3.7c-.15.12-.33.21-.44.35-.59.82-2.07.82-2.69-.01-.1-.13-.27-.21-.4-.32-.05.01-.1.03-.16.04.11-.28.2-.57.32-.84.02-.05.17-.09.23-.06.15.05.28.14.42.22.31.18.31.29-.03.54.2.14.39.28.58.41.03-.02.07-.03.1-.05,0-.49,0-.97-.01-1.46,0-.08-.14-.15-.22-.22-.31-.25-.43-.64-.31-1.01.13-.37.46-.6.86-.6.39,0,.73.26.84.63.11.37-.03.74-.34.99-.11.09-.21.26-.22.4-.03.41-.01.82-.01,1.23.03.02.07.05.1.07.19-.12.38-.25.63-.4-.16-.08-.25-.13-.36-.19.13-.37.46-.46.75-.58.05-.02.18.08.21.15.11.25.19.5.28.76-.05-.01-.09-.03-.14-.04Z"/>
      <path class="cls-1" d="M19.13,10.67c-.25-.22-.3-.43-.26-.72.03-.19.03-.39.04-.58,0,0,0,0,0,0,.02-.27.02-.53.06-.8.04-.24-.08-.34-.28-.43-.2-.09-.33-.09-.47.09-.09.12-.21.24-.33.34-.28.21-.33.49-.35.82-.04,1.11-.07,2.23-.22,3.33-.09.71-.32,1.41-.59,2.07-.22.54-.73.71-1.27.55-.2-.06-.4-.18-.56-.31-.27-.22-.56-.31-.9-.3-.65.01-1.31.02-1.96,0-.62-.02-1.17.06-1.7.46-.57.43-1.22.26-1.57-.37-.18-.33-.32-.71-.41-1.08-.33-1.25-.39-2.53-.38-3.81,0-.66-.1-1.23-.67-1.65-.16-.12-.24-.26-.49-.15-.24.11-.32.24-.29.5.06.5.1,1.01.13,1.52,0,.11-.04.28-.12.33-.38.26-.48.62-.41,1.05.04.25.1.5.13.75.07.56.35.96.85,1.23.11.06.2.23.21.36.05.46.04.92.09,1.37.2,1.73.75,3.33,1.95,4.63,1.24,1.35,2.78,1.82,4.54,1.36,1.7-.44,2.74-1.65,3.42-3.2.57-1.31.83-2.7.81-4.13,0-.22.09-.32.26-.45.27-.21.56-.48.69-.79.17-.4.24-.86.28-1.3.02-.22-.09-.53-.26-.67ZM13.87,17.21c-.37,0-.75,0-1.12,0-.29,0-.58,0-.87,0-.1,0-.19,0-.29,0-.33,0-.52-.19-.51-.48.01-.32.2-.48.51-.48.76,0,1.52,0,2.28,0,.35,0,.54.2.53.5-.02.33-.22.46-.53.46Z"/>
      <path class="cls-1" d="M12.77,1.94c-.12-.17-.23-.27-.23-.36,0-.08.15-.22.22-.22.1.01.24.13.25.21.01.08-.12.19-.24.36Z"/>
    </g>
  </g>
</svg>