<svg width="40" height="21" viewBox="0 0 40 21" fill="none" xmlns="http://www.w3.org/2000/svg">
<g clip-path="url(#clip0_265_18692)">
<path d="M37.9156 6.88335V6.98335V12.2759L38.0521 12.2838C38.6405 12.3181 39.1826 12.3496 39.7429 12.3828L39.8223 12.3875L39.8356 12.4659C40.2099 14.6729 40.2476 16.8265 39.5577 18.9042L39.4628 18.8727L39.5576 18.9043C39.2461 19.8417 38.9477 20.4012 38.5339 20.7197C38.117 21.0406 37.601 21.1031 36.8992 21.1C26.3802 21.0542 15.8629 21.048 5.34383 21.0854L5.34378 21.0854C4.30585 21.0886 3.43266 20.8256 2.70455 20.2989C1.97755 19.7731 1.40242 18.9897 0.950351 17.964C0.206944 16.2815 -0.113954 14.4873 -0.0995358 12.4319L-0.0988392 12.3326H0.000461709H1.86989C2.23752 12.3326 2.60432 12.3358 2.97052 12.339C3.82945 12.3464 4.68507 12.3537 5.5403 12.3202L5.54035 12.3202C5.88938 12.3067 6.23957 12.3105 6.54278 12.4503C6.82583 12.5809 7.05522 12.8234 7.21514 13.2428C7.39129 13.1185 7.56372 12.9942 7.73411 12.8714C8.14938 12.5721 8.55259 12.2814 8.96829 12.0211C10.3386 11.1624 11.7158 10.7432 13.0933 10.758C14.4708 10.7728 15.8411 11.2214 17.1981 12.086C17.4417 12.2412 17.6271 12.311 17.8067 12.3092C17.9865 12.3074 18.1779 12.2337 18.4328 12.0624L18.433 12.0623C19.8047 11.145 21.1853 10.6857 22.5643 10.7143C23.9434 10.7429 25.3107 11.2594 26.6557 12.2758C26.6557 12.2758 26.6557 12.2758 26.6557 12.2759L26.6582 12.2778C26.7404 12.3398 26.7901 12.3773 26.8459 12.4018C26.8984 12.4249 26.9618 12.4385 27.0697 12.4365C27.2864 12.4324 27.6483 12.3673 28.3846 12.2271C28.3843 11.7176 28.3813 11.2058 28.3784 10.6925C28.3707 9.34581 28.3629 7.98834 28.4025 6.63282L28.4025 6.63272C28.408 6.45208 28.3879 6.25875 28.3666 6.05449L28.3652 6.04144C28.3437 5.83525 28.3217 5.61868 28.3298 5.40853C28.3378 5.19741 28.3763 4.98696 28.4795 4.79277C28.582 4.59971 28.7451 4.42927 28.9919 4.29064C28.9957 4.28254 29.0006 4.26783 29.0051 4.24443C29.0141 4.19767 29.0184 4.13322 29.0195 4.05641C29.0206 3.98049 29.0186 3.8974 29.0163 3.81454L29.0157 3.79363L37.9156 6.88335ZM37.9156 6.88335H37.8156H37.812C37.5005 6.88335 37.1922 6.87384 36.887 6.86443C36.2018 6.8433 35.5326 6.82266 34.8806 6.91132C34.3538 6.98287 33.936 6.9035 33.6029 6.68204C33.2683 6.45962 33.0059 6.08501 32.8086 5.54014L32.8085 5.53991C32.677 5.1797 32.5879 4.77924 32.5652 4.39237M37.9156 6.88335L29.0119 3.57948C29.0157 2.74468 29.015 1.91001 29.0143 1.05405C29.014 0.706684 29.0137 0.355811 29.0137 0V-0.1H29.1137H30.4311H30.5311V0V4.31168C30.5591 4.29872 30.5882 4.27759 30.6189 4.24591C30.6862 4.17628 30.7547 4.06097 30.821 3.89137C30.9531 3.55293 31.0646 3.02874 31.1527 2.31279L31.1635 2.22501H31.252H32.4546H32.5546V2.32501C32.5546 2.53817 32.5521 2.74845 32.5495 2.95665C32.5436 3.44318 32.5378 3.91834 32.5652 4.39237M32.5652 4.39237L32.4654 4.39816M32.5652 4.39237C32.5652 4.39235 32.5652 4.39233 32.5652 4.39231L32.4654 4.39816M32.4654 4.39816C32.4887 4.79572 32.5801 5.20577 32.7145 5.57419L30.5311 4.41813C30.8511 4.3265 31.0914 3.62879 31.252 2.32501H32.3546H32.4546V2.42501H32.4545C32.4538 2.60161 32.4517 2.77706 32.4496 2.95158C32.4436 3.43972 32.4377 3.92048 32.4654 4.39816ZM38.669 14.0147H38.666H38.6624H38.659H38.6555H38.652H38.6485H38.645H38.6416H38.6381H38.6347H38.6312H38.6278H38.6244H38.6209H38.6175H38.6141H38.6107H38.6073H38.6039H38.6005H38.5972H38.5938H38.5904H38.5871H38.5837H38.5804H38.577H38.5737H38.5704H38.5671H38.5637H38.5604H38.5571H38.5538H38.5506H38.5473H38.544H38.5407H38.5375H38.5342H38.531H38.5277H38.5245H38.5212H38.518H38.5148H38.5116H38.5084H38.5052H38.502H38.4988H38.4956H38.4924H38.4893H38.4861H38.4829H38.4798H38.4766H38.4735H38.4703H38.4672H38.4641H38.461H38.4579H38.4548H38.4516H38.4486H38.4455H38.4424H38.4393H38.4362H38.4332H38.4301H38.427H38.424H38.421H38.4179H38.4149H38.4119H38.4088H38.4058H38.4028H38.3998H38.3968H38.3938H38.3908H38.3878H38.3849H38.3819H38.3789H38.376H38.373H38.3701H38.3671H38.3642H38.3613H38.3583H38.3554H38.3525H38.3496H38.3467H38.3438H38.3409H38.338H38.3351H38.3322H38.3293H38.3265H38.3236H38.3208H38.3179H38.3151H38.3122H38.3094H38.3065H38.3037H38.3009H38.2981H38.2953H38.2924H38.2896H38.2868H38.2841H38.2813H38.2785H38.2757H38.2729H38.2702H38.2674H38.2646H38.2619H38.2591H38.2564H38.2537H38.2509H38.2482H38.2455H38.2428H38.24H38.2373H38.2346H38.2319H38.2292H38.2266H38.2239H38.2212H38.2185H38.2158H38.2132H38.2105H38.2079H38.2052H38.2025H38.1999H38.1973H38.1946H38.192H38.1894H38.1868H38.1841H38.1815H38.1789H38.1763H38.1737H38.1711H38.1685H38.1659H38.1634H38.1608H38.1582H38.1557H38.1531H38.1505H38.148H38.1454H38.1429H38.1403H38.1378H38.1353H38.1327H38.1302H38.1277H38.1252H38.1227H38.1201H38.1176H38.1151H38.1126H38.1102H38.1077H38.1052H38.1027H38.1002H38.0978H38.0953H38.0928H38.0904H38.0879H38.0855H38.083H38.0806H38.0781H38.0757H38.0733H38.0708H38.0684H38.066H38.0636H38.0611H38.0587H38.0563H38.0539H38.0515H38.0491H38.0467H38.0444H38.042H38.0396H38.0372H38.0349H38.0325H38.0301H38.0278H38.0254H38.023H38.0207H38.0183H38.016H38.0137H38.0113H38.009H38.0067H38.0043H38.002H37.9997H37.9974H37.9951H37.9928H37.9905H37.9882H37.9859H37.9836H37.9813H37.979H37.9767H37.9744H37.9721H37.9699H37.9676H37.9653H37.963H37.9608H37.9585H37.9563H37.954H37.9518H37.9495H37.9473H37.945H37.9428H37.9406H37.9383H37.9361H37.9339H37.9317H37.9294H37.9272H37.925H37.9228H37.9206H37.9184H37.9162H37.914H37.9118H37.9096H37.9074H37.9052H37.903H37.9008H37.8987H37.8965H37.8943H37.8921H37.89H37.8878H37.8857H37.8835H37.8813H37.8792H37.877H37.8749H37.8727H37.8706H37.8685H37.8663H37.8642H37.862H37.8599H37.8578H37.8557H37.8535H37.8514H37.8493H37.8472H37.8451H37.843H37.8408H37.8387H37.8366H37.8345H37.8324H37.8303H37.8282H37.8262H37.8241H37.822H37.8199H37.8178H37.8157H37.8137H37.8116H37.8095H37.8074H37.8054H37.8033H37.8012H37.7992H37.7971H37.795H37.793H37.7909H37.7889H37.7868H37.7848H37.7827H37.7807H37.7787H37.7766H37.7746H37.7725H37.7705H37.7685H37.7664H37.7644H37.7624H37.7604H37.7583H37.7563H37.7543H37.7523H37.7503H37.7482H37.7462H37.7442H37.7422H37.7402H37.7382H37.7362H37.7342H37.7322H37.7302H37.7282H37.7262H37.7242H37.7222H37.7202H37.7183H37.7163H37.7143H37.7123H37.7103H37.7083H37.7063H37.7044H37.7024H37.7004H37.6984H37.6965H37.6945H37.6925H37.6906H37.6886H37.6866H37.6847H37.6827H37.6807H37.6788H37.6768H37.6749H37.6729H37.671H37.669H37.6671H37.6651H37.6632H37.6612H37.6593H37.6573H37.6554H37.6534H37.6515H37.6495H37.6476H37.6457H37.6437H37.6418H37.6398H37.6379H37.636H37.634H37.6321H37.6302H37.6282H37.6263H37.6244H37.6224H37.6205H37.6186H37.6167H37.6147H37.6128H37.6109H37.609H37.6071H37.6051H37.6032H37.6013H37.5994H37.5975H37.5955H37.5936H37.5917H37.5898H37.5879H37.586H37.584H37.5821H37.5802H37.5783H37.5764H37.5745H37.5726H37.5707H37.5688H37.5668H37.5649H37.563H37.5611H37.5592H37.5573H37.5554H37.5535H37.5516H37.5497H37.5478H37.5459H37.544H37.5421H37.5402H37.5383H37.5364H37.5345H37.5326H37.5307H37.5288H37.5268H37.5249H37.523H37.5211H37.5192H37.5173H37.5154H37.5135H37.5116H37.5097H37.5078H37.5059H37.504H37.5021H37.5002H37.4983C36.7454 14.0147 35.9917 14.0196 35.2375 14.0246C33.363 14.037 31.4858 14.0493 29.6105 13.9855C29.0814 13.968 28.6419 14.0244 28.2841 14.2225C27.9295 14.4189 27.6416 14.7622 27.4316 15.3472L27.3375 15.3134L27.4316 15.3472C27.2813 15.7657 27.0631 16.0411 26.7755 16.2085C26.4905 16.3744 26.1494 16.4271 25.7668 16.425H25.7667C20.0332 16.3896 14.2983 16.3771 8.56711 16.4333L8.56701 16.4333C8.08692 16.4376 7.67029 16.38 7.31668 16.1823C6.96073 15.9833 6.6814 15.6497 6.46117 15.1275L6.46106 15.1272C6.37023 14.9101 6.24009 14.6455 6.0968 14.4339C6.02505 14.3279 5.95227 14.2386 5.88201 14.1754C5.81015 14.1107 5.75111 14.0825 5.70637 14.0789L5.7061 14.0788C4.68719 13.993 3.66447 14.0046 2.53463 14.0173C2.15065 14.0217 1.7543 14.0262 1.34152 14.027C1.4664 14.423 1.57905 14.8015 1.68736 15.1654C1.94685 16.0373 2.1814 16.8253 2.49951 17.5699C2.76716 18.1946 3.13885 18.643 3.59151 18.9355C4.04434 19.2281 4.58472 19.369 5.19634 19.368L38.669 14.0147ZM38.669 14.0147C38.6145 14.4636 38.5648 14.898 38.5163 15.3217C38.3952 16.3793 38.2817 17.3701 38.1219 18.3529C38.0629 18.7156 37.9267 18.9626 37.7303 19.1202C37.5331 19.2786 37.2619 19.3576 36.9124 19.3576L38.669 14.0147ZM31.9298 7.23023C32.1903 7.74742 32.4866 8.12919 32.8579 8.36056C33.2318 8.59352 33.6701 8.66683 34.1988 8.58928L34.1989 8.58926C34.5562 8.53638 34.9205 8.53103 35.3034 8.53932C35.4417 8.54231 35.5834 8.54713 35.7279 8.55205C35.9487 8.55956 36.1762 8.56731 36.409 8.56912V12.2327H29.9486V6.38143C30.2491 6.29234 30.4843 6.22815 30.6782 6.19686C30.8864 6.16326 31.0365 6.16954 31.1613 6.21672C31.2852 6.26355 31.3972 6.35562 31.5194 6.51946C31.6426 6.68455 31.7709 6.91519 31.9298 7.23023ZM31.9298 7.23023L32.0191 7.18525L31.9298 7.23029C31.9298 7.23027 31.9298 7.23025 31.9298 7.23023ZM29.0007 4.28572C29.0005 4.28583 29.0003 4.28595 29.0001 4.28607C29.0003 4.28591 29.0006 4.28576 29.0009 4.2856L29.0007 4.28572ZM19.2007 13.5854C21.0728 12.0786 24.0732 12.1269 25.7714 13.6865C25.8541 13.7624 25.9185 13.8769 25.9816 14.0167C26.003 14.0641 26.0247 14.1159 26.0471 14.1691C26.0733 14.2315 26.1004 14.2958 26.1286 14.3573C26.0739 14.3854 26.0187 14.4162 25.9654 14.4459C25.9186 14.472 25.8733 14.4973 25.8313 14.519C25.7054 14.5844 25.5939 14.6281 25.4889 14.6306C24.891 14.6442 24.2932 14.6397 23.694 14.6352C23.5614 14.6342 23.4287 14.6332 23.2959 14.6324C22.5639 14.628 21.83 14.6295 21.0963 14.6703C20.6581 14.6945 20.2916 14.627 19.9788 14.4472C19.6823 14.2768 19.4252 14.0003 19.2007 13.5854ZM8.37628 14.5786C11.1197 11.8422 15.2405 11.8619 17.6205 14.5786H8.37628Z" fill="#869EBC" stroke="#869EBC" stroke-width="0.2"/>
<path d="M32.5132 9.37305V9.27305H32.4132H30.5527H30.4527V9.37305V10.7135V10.8135H30.5527H32.4132H32.5132V10.7135V9.37305Z" fill="#869EBC" stroke="#869EBC" stroke-width="0.2"/>
<path d="M35.8944 9.36621V9.26621H35.7944H33.916H33.816V9.36621V10.7213V10.8213H33.916H35.7944H35.8944V10.7213V9.36621Z" fill="#869EBC" stroke="#869EBC" stroke-width="0.2"/>
</g>
<defs>
<clipPath id="clip0_265_18692">
<rect width="40" height="21" fill="white"/>
</clipPath>
</defs>
</svg>
