<svg width="30" height="27" viewBox="0 0 30 27" fill="none" xmlns="http://www.w3.org/2000/svg">
<g clip-path="url(#clip0_265_20393)">
<mask id="path-1-outside-1_265_20393" maskUnits="userSpaceOnUse" x="-0.998047" y="-1" width="32" height="26" fill="black">
<rect fill="white" x="-0.998047" y="-1" width="32" height="26"/>
<path d="M6.56781 22.6863C5.9035 21.4644 5.25605 20.4087 4.74146 19.2914C4.18919 18.0944 3.99485 16.795 3.95519 15.4746C3.94032 14.9721 4.15349 14.7015 4.6433 14.6149C5.16186 14.5234 5.67645 14.41 6.2426 14.2955C6.2426 13.7931 6.2426 13.2986 6.2426 12.805C6.2426 11.3951 6.2426 9.98624 6.2426 8.57635C6.2426 7.69479 6.35365 7.58036 7.22716 7.54653C7.30549 7.54355 7.38382 7.52962 7.51272 7.51469C7.51272 6.9187 7.50677 6.3416 7.5147 5.7655C7.52164 5.24413 7.71201 5.0511 8.23652 5.04115C8.79573 5.0312 9.35494 5.03916 9.99347 5.03916C9.99347 4.39441 9.99347 3.78846 9.99347 3.18351C9.99347 3.00143 9.9895 2.81835 9.99446 2.63627C10.0073 2.19051 10.2562 1.89798 10.6221 1.894C10.9919 1.89002 11.2467 2.16564 11.2576 2.6303C11.2725 3.22729 11.2616 3.82428 11.2626 4.42127C11.2626 4.60236 11.2626 4.78246 11.2626 5.03319C11.8377 5.03319 12.378 5.0511 12.9144 5.01528C12.9987 5.00931 13.1306 4.76057 13.1326 4.62226C13.1494 3.39544 13.1415 2.16862 13.1435 0.941801C13.1445 0.166705 13.3041 0.0045219 14.0656 0.00253193C14.7269 0.000541952 15.3873 -0.00244301 16.0486 0.00352692C16.6604 0.00949685 16.8557 0.19954 16.8587 0.802503C16.8646 2.06216 16.8696 3.32281 16.8547 4.58346C16.8507 4.91777 16.936 5.06702 17.2969 5.04513C17.754 5.01827 18.215 5.03817 18.7405 5.03817C18.7405 4.33173 18.7405 3.67503 18.7405 3.01834C18.7405 2.83626 18.7267 2.6502 18.7564 2.47309C18.8149 2.12285 19.0182 1.88405 19.39 1.90296C19.7717 1.92286 19.9958 2.15967 20.0037 2.54871C20.0166 3.17853 20.0077 3.80836 20.0087 4.43918C20.0087 4.61729 20.0087 4.79639 20.0087 5.04016C20.6125 5.04016 21.1697 5.03419 21.7269 5.04215C22.306 5.05011 22.4845 5.23617 22.4894 5.82719C22.4934 6.37344 22.4894 6.9187 22.4894 7.51171C22.653 7.52564 22.7938 7.54454 22.9346 7.54852C23.5642 7.56544 23.7566 7.75051 23.7585 8.39028C23.7635 10.1643 23.7605 11.9384 23.7605 13.7125C23.7605 13.8926 23.7605 14.0737 23.7605 14.2916C24.2979 14.403 24.8095 14.5065 25.3212 14.6159C25.923 14.7443 26.0618 14.9094 26.042 15.5373C25.9656 17.9083 25.22 20.0456 23.7992 21.944C23.6634 22.1261 23.5236 22.3062 23.3461 22.54C23.9925 22.6087 24.4794 22.3619 24.9583 22.0853C26.3513 21.2794 27.7712 21.2386 29.2168 21.9351C29.3209 21.9848 29.42 22.0455 29.5172 22.1082C30.0001 22.4226 30.122 22.7659 29.8821 23.1261C29.664 23.4524 29.3417 23.4584 28.842 23.1659C27.8207 22.5669 26.7569 22.4952 25.7366 23.1012C24.0064 24.127 22.3486 24.0604 20.6561 23.0067C19.6666 22.3908 18.5908 22.3967 17.6023 23.0156C15.8493 24.1131 14.1489 24.1061 12.3959 23.0116C11.3905 22.3838 10.3088 22.4067 9.29842 23.0345C7.63963 24.0643 6.00067 24.1191 4.3052 23.1191C3.24726 22.4952 2.16156 22.5629 1.11255 23.1967C0.66736 23.4654 0.327273 23.4425 0.118066 23.1181C-0.108989 22.7659 -0.00686426 22.4137 0.458152 22.1341C1.95929 21.2276 3.47431 21.2296 5.0171 22.0594C5.49599 22.3171 6.02942 22.4733 6.57079 22.6903L6.56781 22.6863ZM15.6322 13.9543V14.5672C15.6322 16.4576 15.6332 18.3481 15.6322 20.2386C15.6322 20.8465 15.4349 21.1062 14.9916 21.1003C14.5564 21.0953 14.371 20.8366 14.371 20.2187C14.369 18.3451 14.371 16.4706 14.371 14.597V13.9831C14.1935 14.002 14.0636 14.006 13.9377 14.0309C11.1575 14.5881 8.37929 15.1552 5.59614 15.6955C5.2501 15.7631 5.20945 15.9263 5.24316 16.2049C5.51285 18.4068 6.35563 20.3441 7.86768 21.9788C8.05805 22.1848 8.20082 22.2256 8.45267 22.0694C10.0857 21.0495 11.7147 21.0893 13.3477 22.0962C14.4285 22.7629 15.5509 22.7758 16.6286 22.1102C18.2805 21.0913 19.9174 21.0455 21.5673 22.0773C21.7954 22.2196 21.9352 22.1948 22.1146 22.0007C23.6415 20.356 24.4952 18.4068 24.7619 16.185C24.7976 15.8865 24.7163 15.7512 24.3881 15.6915C23.1071 15.4587 21.833 15.1851 20.556 14.9293C18.9398 14.607 17.3237 14.2876 15.6322 13.9523V13.9543ZM7.53156 14.003C7.6317 14.003 7.68227 14.011 7.72986 14.002C9.9429 13.5573 12.1549 13.1075 14.369 12.6687C14.6387 12.615 14.9302 12.5533 15.1919 12.6001C16.5374 12.8439 17.8769 13.1234 19.2184 13.3891C20.2922 13.602 21.367 13.814 22.4577 14.0299V12.5772C21.9917 12.4817 21.3175 12.7205 21.2748 11.9792C21.2233 11.1036 22.0115 11.3981 22.4636 11.2598V8.84201H20.6204C20.6204 9.4201 20.6234 9.94943 20.6204 10.4788C20.6155 11.0847 20.4201 11.3066 19.8332 11.3076C16.6118 11.3146 13.3914 11.3146 10.17 11.3076C9.58298 11.3066 9.38666 11.0837 9.3827 10.4788C9.37873 9.93749 9.3827 9.39522 9.3827 8.8241H7.54841V11.2787C8.02235 11.3653 8.69261 11.1365 8.7293 11.8817C8.77193 12.7483 7.98368 12.4498 7.53255 12.5961V14.003H7.53156ZM8.78581 7.52663H21.2074V6.30777H8.78581V7.52663ZM15.5905 5.00832V1.30796H14.4057V5.00832H15.5905ZM11.8565 8.86091H10.6439V10.0051H11.8565V8.86091ZM19.3711 8.8231H18.1585V10.0012H19.3711V8.8231ZM14.3382 10.0171V8.82211H13.1861V10.0171H14.3382ZM15.6738 8.8231V10.0012H16.8259V8.8231H15.6738Z"/>
</mask>
<path d="M6.56781 22.6863C5.9035 21.4644 5.25605 20.4087 4.74146 19.2914C4.18919 18.0944 3.99485 16.795 3.95519 15.4746C3.94032 14.9721 4.15349 14.7015 4.6433 14.6149C5.16186 14.5234 5.67645 14.41 6.2426 14.2955C6.2426 13.7931 6.2426 13.2986 6.2426 12.805C6.2426 11.3951 6.2426 9.98624 6.2426 8.57635C6.2426 7.69479 6.35365 7.58036 7.22716 7.54653C7.30549 7.54355 7.38382 7.52962 7.51272 7.51469C7.51272 6.9187 7.50677 6.3416 7.5147 5.7655C7.52164 5.24413 7.71201 5.0511 8.23652 5.04115C8.79573 5.0312 9.35494 5.03916 9.99347 5.03916C9.99347 4.39441 9.99347 3.78846 9.99347 3.18351C9.99347 3.00143 9.9895 2.81835 9.99446 2.63627C10.0073 2.19051 10.2562 1.89798 10.6221 1.894C10.9919 1.89002 11.2467 2.16564 11.2576 2.6303C11.2725 3.22729 11.2616 3.82428 11.2626 4.42127C11.2626 4.60236 11.2626 4.78246 11.2626 5.03319C11.8377 5.03319 12.378 5.0511 12.9144 5.01528C12.9987 5.00931 13.1306 4.76057 13.1326 4.62226C13.1494 3.39544 13.1415 2.16862 13.1435 0.941801C13.1445 0.166705 13.3041 0.0045219 14.0656 0.00253193C14.7269 0.000541952 15.3873 -0.00244301 16.0486 0.00352692C16.6604 0.00949685 16.8557 0.19954 16.8587 0.802503C16.8646 2.06216 16.8696 3.32281 16.8547 4.58346C16.8507 4.91777 16.936 5.06702 17.2969 5.04513C17.754 5.01827 18.215 5.03817 18.7405 5.03817C18.7405 4.33173 18.7405 3.67503 18.7405 3.01834C18.7405 2.83626 18.7267 2.6502 18.7564 2.47309C18.8149 2.12285 19.0182 1.88405 19.39 1.90296C19.7717 1.92286 19.9958 2.15967 20.0037 2.54871C20.0166 3.17853 20.0077 3.80836 20.0087 4.43918C20.0087 4.61729 20.0087 4.79639 20.0087 5.04016C20.6125 5.04016 21.1697 5.03419 21.7269 5.04215C22.306 5.05011 22.4845 5.23617 22.4894 5.82719C22.4934 6.37344 22.4894 6.9187 22.4894 7.51171C22.653 7.52564 22.7938 7.54454 22.9346 7.54852C23.5642 7.56544 23.7566 7.75051 23.7585 8.39028C23.7635 10.1643 23.7605 11.9384 23.7605 13.7125C23.7605 13.8926 23.7605 14.0737 23.7605 14.2916C24.2979 14.403 24.8095 14.5065 25.3212 14.6159C25.923 14.7443 26.0618 14.9094 26.042 15.5373C25.9656 17.9083 25.22 20.0456 23.7992 21.944C23.6634 22.1261 23.5236 22.3062 23.3461 22.54C23.9925 22.6087 24.4794 22.3619 24.9583 22.0853C26.3513 21.2794 27.7712 21.2386 29.2168 21.9351C29.3209 21.9848 29.42 22.0455 29.5172 22.1082C30.0001 22.4226 30.122 22.7659 29.8821 23.1261C29.664 23.4524 29.3417 23.4584 28.842 23.1659C27.8207 22.5669 26.7569 22.4952 25.7366 23.1012C24.0064 24.127 22.3486 24.0604 20.6561 23.0067C19.6666 22.3908 18.5908 22.3967 17.6023 23.0156C15.8493 24.1131 14.1489 24.1061 12.3959 23.0116C11.3905 22.3838 10.3088 22.4067 9.29842 23.0345C7.63963 24.0643 6.00067 24.1191 4.3052 23.1191C3.24726 22.4952 2.16156 22.5629 1.11255 23.1967C0.66736 23.4654 0.327273 23.4425 0.118066 23.1181C-0.108989 22.7659 -0.00686426 22.4137 0.458152 22.1341C1.95929 21.2276 3.47431 21.2296 5.0171 22.0594C5.49599 22.3171 6.02942 22.4733 6.57079 22.6903L6.56781 22.6863ZM15.6322 13.9543V14.5672C15.6322 16.4576 15.6332 18.3481 15.6322 20.2386C15.6322 20.8465 15.4349 21.1062 14.9916 21.1003C14.5564 21.0953 14.371 20.8366 14.371 20.2187C14.369 18.3451 14.371 16.4706 14.371 14.597V13.9831C14.1935 14.002 14.0636 14.006 13.9377 14.0309C11.1575 14.5881 8.37929 15.1552 5.59614 15.6955C5.2501 15.7631 5.20945 15.9263 5.24316 16.2049C5.51285 18.4068 6.35563 20.3441 7.86768 21.9788C8.05805 22.1848 8.20082 22.2256 8.45267 22.0694C10.0857 21.0495 11.7147 21.0893 13.3477 22.0962C14.4285 22.7629 15.5509 22.7758 16.6286 22.1102C18.2805 21.0913 19.9174 21.0455 21.5673 22.0773C21.7954 22.2196 21.9352 22.1948 22.1146 22.0007C23.6415 20.356 24.4952 18.4068 24.7619 16.185C24.7976 15.8865 24.7163 15.7512 24.3881 15.6915C23.1071 15.4587 21.833 15.1851 20.556 14.9293C18.9398 14.607 17.3237 14.2876 15.6322 13.9523V13.9543ZM7.53156 14.003C7.6317 14.003 7.68227 14.011 7.72986 14.002C9.9429 13.5573 12.1549 13.1075 14.369 12.6687C14.6387 12.615 14.9302 12.5533 15.1919 12.6001C16.5374 12.8439 17.8769 13.1234 19.2184 13.3891C20.2922 13.602 21.367 13.814 22.4577 14.0299V12.5772C21.9917 12.4817 21.3175 12.7205 21.2748 11.9792C21.2233 11.1036 22.0115 11.3981 22.4636 11.2598V8.84201H20.6204C20.6204 9.4201 20.6234 9.94943 20.6204 10.4788C20.6155 11.0847 20.4201 11.3066 19.8332 11.3076C16.6118 11.3146 13.3914 11.3146 10.17 11.3076C9.58298 11.3066 9.38666 11.0837 9.3827 10.4788C9.37873 9.93749 9.3827 9.39522 9.3827 8.8241H7.54841V11.2787C8.02235 11.3653 8.69261 11.1365 8.7293 11.8817C8.77193 12.7483 7.98368 12.4498 7.53255 12.5961V14.003H7.53156ZM8.78581 7.52663H21.2074V6.30777H8.78581V7.52663ZM15.5905 5.00832V1.30796H14.4057V5.00832H15.5905ZM11.8565 8.86091H10.6439V10.0051H11.8565V8.86091ZM19.3711 8.8231H18.1585V10.0012H19.3711V8.8231ZM14.3382 10.0171V8.82211H13.1861V10.0171H14.3382ZM15.6738 8.8231V10.0012H16.8259V8.8231H15.6738Z" fill="#869EBC"/>
<path d="M6.56781 22.6863C5.9035 21.4644 5.25605 20.4087 4.74146 19.2914C4.18919 18.0944 3.99485 16.795 3.95519 15.4746C3.94032 14.9721 4.15349 14.7015 4.6433 14.6149C5.16186 14.5234 5.67645 14.41 6.2426 14.2955C6.2426 13.7931 6.2426 13.2986 6.2426 12.805C6.2426 11.3951 6.2426 9.98624 6.2426 8.57635C6.2426 7.69479 6.35365 7.58036 7.22716 7.54653C7.30549 7.54355 7.38382 7.52962 7.51272 7.51469C7.51272 6.9187 7.50677 6.3416 7.5147 5.7655C7.52164 5.24413 7.71201 5.0511 8.23652 5.04115C8.79573 5.0312 9.35494 5.03916 9.99347 5.03916C9.99347 4.39441 9.99347 3.78846 9.99347 3.18351C9.99347 3.00143 9.9895 2.81835 9.99446 2.63627C10.0073 2.19051 10.2562 1.89798 10.6221 1.894C10.9919 1.89002 11.2467 2.16564 11.2576 2.6303C11.2725 3.22729 11.2616 3.82428 11.2626 4.42127C11.2626 4.60236 11.2626 4.78246 11.2626 5.03319C11.8377 5.03319 12.378 5.0511 12.9144 5.01528C12.9987 5.00931 13.1306 4.76057 13.1326 4.62226C13.1494 3.39544 13.1415 2.16862 13.1435 0.941801C13.1445 0.166705 13.3041 0.0045219 14.0656 0.00253193C14.7269 0.000541952 15.3873 -0.00244301 16.0486 0.00352692C16.6604 0.00949685 16.8557 0.19954 16.8587 0.802503C16.8646 2.06216 16.8696 3.32281 16.8547 4.58346C16.8507 4.91777 16.936 5.06702 17.2969 5.04513C17.754 5.01827 18.215 5.03817 18.7405 5.03817C18.7405 4.33173 18.7405 3.67503 18.7405 3.01834C18.7405 2.83626 18.7267 2.6502 18.7564 2.47309C18.8149 2.12285 19.0182 1.88405 19.39 1.90296C19.7717 1.92286 19.9958 2.15967 20.0037 2.54871C20.0166 3.17853 20.0077 3.80836 20.0087 4.43918C20.0087 4.61729 20.0087 4.79639 20.0087 5.04016C20.6125 5.04016 21.1697 5.03419 21.7269 5.04215C22.306 5.05011 22.4845 5.23617 22.4894 5.82719C22.4934 6.37344 22.4894 6.9187 22.4894 7.51171C22.653 7.52564 22.7938 7.54454 22.9346 7.54852C23.5642 7.56544 23.7566 7.75051 23.7585 8.39028C23.7635 10.1643 23.7605 11.9384 23.7605 13.7125C23.7605 13.8926 23.7605 14.0737 23.7605 14.2916C24.2979 14.403 24.8095 14.5065 25.3212 14.6159C25.923 14.7443 26.0618 14.9094 26.042 15.5373C25.9656 17.9083 25.22 20.0456 23.7992 21.944C23.6634 22.1261 23.5236 22.3062 23.3461 22.54C23.9925 22.6087 24.4794 22.3619 24.9583 22.0853C26.3513 21.2794 27.7712 21.2386 29.2168 21.9351C29.3209 21.9848 29.42 22.0455 29.5172 22.1082C30.0001 22.4226 30.122 22.7659 29.8821 23.1261C29.664 23.4524 29.3417 23.4584 28.842 23.1659C27.8207 22.5669 26.7569 22.4952 25.7366 23.1012C24.0064 24.127 22.3486 24.0604 20.6561 23.0067C19.6666 22.3908 18.5908 22.3967 17.6023 23.0156C15.8493 24.1131 14.1489 24.1061 12.3959 23.0116C11.3905 22.3838 10.3088 22.4067 9.29842 23.0345C7.63963 24.0643 6.00067 24.1191 4.3052 23.1191C3.24726 22.4952 2.16156 22.5629 1.11255 23.1967C0.66736 23.4654 0.327273 23.4425 0.118066 23.1181C-0.108989 22.7659 -0.00686426 22.4137 0.458152 22.1341C1.95929 21.2276 3.47431 21.2296 5.0171 22.0594C5.49599 22.3171 6.02942 22.4733 6.57079 22.6903L6.56781 22.6863ZM15.6322 13.9543V14.5672C15.6322 16.4576 15.6332 18.3481 15.6322 20.2386C15.6322 20.8465 15.4349 21.1062 14.9916 21.1003C14.5564 21.0953 14.371 20.8366 14.371 20.2187C14.369 18.3451 14.371 16.4706 14.371 14.597V13.9831C14.1935 14.002 14.0636 14.006 13.9377 14.0309C11.1575 14.5881 8.37929 15.1552 5.59614 15.6955C5.2501 15.7631 5.20945 15.9263 5.24316 16.2049C5.51285 18.4068 6.35563 20.3441 7.86768 21.9788C8.05805 22.1848 8.20082 22.2256 8.45267 22.0694C10.0857 21.0495 11.7147 21.0893 13.3477 22.0962C14.4285 22.7629 15.5509 22.7758 16.6286 22.1102C18.2805 21.0913 19.9174 21.0455 21.5673 22.0773C21.7954 22.2196 21.9352 22.1948 22.1146 22.0007C23.6415 20.356 24.4952 18.4068 24.7619 16.185C24.7976 15.8865 24.7163 15.7512 24.3881 15.6915C23.1071 15.4587 21.833 15.1851 20.556 14.9293C18.9398 14.607 17.3237 14.2876 15.6322 13.9523V13.9543ZM7.53156 14.003C7.6317 14.003 7.68227 14.011 7.72986 14.002C9.9429 13.5573 12.1549 13.1075 14.369 12.6687C14.6387 12.615 14.9302 12.5533 15.1919 12.6001C16.5374 12.8439 17.8769 13.1234 19.2184 13.3891C20.2922 13.602 21.367 13.814 22.4577 14.0299V12.5772C21.9917 12.4817 21.3175 12.7205 21.2748 11.9792C21.2233 11.1036 22.0115 11.3981 22.4636 11.2598V8.84201H20.6204C20.6204 9.4201 20.6234 9.94943 20.6204 10.4788C20.6155 11.0847 20.4201 11.3066 19.8332 11.3076C16.6118 11.3146 13.3914 11.3146 10.17 11.3076C9.58298 11.3066 9.38666 11.0837 9.3827 10.4788C9.37873 9.93749 9.3827 9.39522 9.3827 8.8241H7.54841V11.2787C8.02235 11.3653 8.69261 11.1365 8.7293 11.8817C8.77193 12.7483 7.98368 12.4498 7.53255 12.5961V14.003H7.53156ZM8.78581 7.52663H21.2074V6.30777H8.78581V7.52663ZM15.5905 5.00832V1.30796H14.4057V5.00832H15.5905ZM11.8565 8.86091H10.6439V10.0051H11.8565V8.86091ZM19.3711 8.8231H18.1585V10.0012H19.3711V8.8231ZM14.3382 10.0171V8.82211H13.1861V10.0171H14.3382ZM15.6738 8.8231V10.0012H16.8259V8.8231H15.6738Z" stroke="#869EBC" stroke-width="0.4" mask="url(#path-1-outside-1_265_20393)"/>
<path d="M4.92557 25.0663L4.9256 25.0663C5.56204 25.4242 6.16836 25.5959 6.76866 25.5864C7.36896 25.5769 7.97127 25.3861 8.59949 25.0062C10.0718 24.1154 11.6475 24.1102 13.1221 25.0012L13.0704 25.0868L13.1221 25.0012C13.7686 25.3918 14.3872 25.5909 14.9992 25.5946C15.6108 25.5983 16.2249 25.4071 16.8629 25.0023L16.8629 25.0023C17.9644 24.3042 19.1795 24.205 20.422 24.5578L20.422 24.5578C20.677 24.6304 20.8728 24.7451 20.9906 24.9072C21.1108 25.0726 21.1398 25.2732 21.0879 25.4928L4.92557 25.0663ZM4.92557 25.0663C4.62245 24.896 4.29359 24.7773 3.96306 24.6738C3.83686 24.6343 3.71168 24.5973 3.58741 24.5606C3.39506 24.5038 3.20486 24.4476 3.01636 24.3836L3.00055 24.3519M4.92557 25.0663L3.00055 24.3519M4.362 26.4145L4.36197 26.4145C3.91349 26.1716 3.3791 26.0385 2.85822 25.9567C2.56984 25.9114 2.32995 25.8435 2.16208 25.7259C1.98591 25.6024 1.89449 25.4277 1.90026 25.1948L4.362 26.4145ZM4.362 26.4145C5.98315 27.2917 7.57577 27.3114 9.15911 26.3534M4.362 26.4145L4.40959 26.3265C6.00195 27.1882 7.55663 27.2061 9.10734 26.2678M9.10734 26.2678L9.15911 26.3534M9.10734 26.2678C10.2981 25.5475 11.4642 25.5584 12.653 26.2847L9.10734 26.2678ZM9.15911 26.3534C9.74161 26.001 10.3129 25.8304 10.8803 25.8338C11.4478 25.8371 12.0189 26.0145 12.6008 26.3701M9.15911 26.3534L12.6008 26.3701M12.6008 26.3701C13.3888 26.8517 14.1901 27.0971 14.9938 27.0988C15.7977 27.1004 16.5975 26.8583 17.3823 26.3749C18.2355 25.85 19.1061 25.7265 20.0552 25.9629C20.0552 25.9629 20.0552 25.9629 20.0552 25.9629L20.0794 25.8658L12.6008 26.3701ZM3.00055 24.3519L2.92736 24.3643M3.00055 24.3519L2.92736 24.3643M2.92736 24.3643C2.61971 24.4167 2.36803 24.5027 2.19005 24.6368M2.92736 24.3643L2.19005 24.6368M2.19005 24.6368C2.00721 24.7745 1.906 24.9604 1.90026 25.1947L2.19005 24.6368Z" fill="#869EBC" stroke="#869EBC" stroke-width="0.2"/>
<path d="M22.6629 27.0394C22.8574 27.0424 23.0397 26.9526 23.1719 26.819C23.3042 26.6852 23.3934 26.5005 23.394 26.303V26.3029C23.3951 25.9086 23.0645 25.5403 22.6576 25.5762L22.6573 25.5762C22.4692 25.5934 22.2992 25.6523 22.174 25.7704C22.0471 25.8901 21.978 26.0598 21.9725 26.2742L21.9725 26.2743C21.9624 26.684 22.2644 27.0335 22.6629 27.0394ZM22.6629 27.0394L22.6644 26.9395L22.6629 27.0394C22.6629 27.0394 22.6629 27.0394 22.6629 27.0394Z" fill="#869EBC" stroke="#869EBC" stroke-width="0.2"/>
<path d="M11.5563 17.591C11.9899 17.3953 12.4327 17.1929 12.8434 16.9404C12.9501 16.8753 13.0274 16.7746 13.085 16.6861C13.1109 16.6463 13.1343 16.6065 13.1547 16.5719C13.1572 16.5676 13.1597 16.5634 13.1621 16.5593C13.1851 16.5202 13.2028 16.4909 13.2183 16.4702L13.2382 16.4436V16.4103V16.4093H13.2383L13.2382 16.4054C13.2267 16.114 13.0991 15.875 12.911 15.7319C12.7224 15.5884 12.4753 15.5442 12.2404 15.6413L12.2403 15.6414C11.7808 15.8316 11.3355 16.0648 10.9076 16.3139M11.5563 17.591L11.5151 17.4999M11.5563 17.591C11.5563 17.591 11.5563 17.591 11.5563 17.591L11.5151 17.4999M11.5563 17.591C11.3599 17.6797 11.1701 17.6962 11.0001 17.6323C10.8311 17.5686 10.6978 17.4314 10.6013 17.2442L10.6013 17.2442C10.501 17.0496 10.4887 16.8632 10.5527 16.698C10.6155 16.5358 10.7466 16.4075 10.9076 16.3139M11.5151 17.4999C11.9494 17.3038 12.3867 17.1039 12.7912 16.8551L10.9579 16.4004M11.5151 17.4999C11.1582 17.661 10.8677 17.5426 10.6902 17.1984C10.5117 16.8521 10.6615 16.5725 10.9579 16.4004M10.9076 16.3139C10.9077 16.3139 10.9077 16.3139 10.9077 16.3139L10.9579 16.4004M10.9076 16.3139C10.9076 16.314 10.9076 16.314 10.9076 16.314L10.9579 16.4004" fill="#869EBC" stroke="#869EBC" stroke-width="0.2"/>
<path d="M17.479 15.4742H17.0953L17.3078 15.593C17.2765 15.6189 17.245 15.6438 17.2132 15.669C17.1721 15.7015 17.1305 15.7345 17.0883 15.7702C16.9874 15.8559 16.8836 15.9588 16.8497 16.0916C16.8176 16.2159 16.8309 16.3777 16.8693 16.5181C16.889 16.5898 16.9163 16.6601 16.9509 16.7212C16.9849 16.7812 17.0294 16.8382 17.0862 16.8761C17.5396 17.1805 18.0442 17.4301 18.5611 17.6071L18.5614 17.6072C18.6258 17.629 18.6989 17.6302 18.7682 17.6217C18.8388 17.6129 18.9126 17.5931 18.9826 17.5661C19.1178 17.5139 19.259 17.4267 19.3303 17.3188L19.3303 17.3188C19.3678 17.262 19.39 17.1889 19.4025 17.1171C19.4154 17.0436 19.4196 16.9633 19.416 16.8863C19.4125 16.8096 19.401 16.7326 19.3804 16.6664C19.3612 16.6044 19.3285 16.5339 19.2699 16.4925L19.2698 16.4925C18.893 16.2263 18.4815 16.0046 18.0432 15.7683C17.9134 15.6983 17.7812 15.6271 17.6468 15.553L17.7292 15.4742H17.48H17.479Z" fill="#869EBC" stroke="#869EBC" stroke-width="0.2"/>
</g>
<defs>
<clipPath id="clip0_265_20393">
<rect width="30" height="27" fill="white"/>
</clipPath>
</defs>
</svg>
